<svg width="1024" height="1024" viewBox="0 0 1024 1024" fill="none" xmlns="http://www.w3.org/2000/svg">
  <defs>
    <linearGradient id="bg" x1="160" y1="120" x2="864" y2="904" gradientUnits="userSpaceOnUse">
      <stop stop-color="#F9FCFF"/>
      <stop offset="1" stop-color="#EAF5FF"/>
    </linearGradient>
    <linearGradient id="card" x1="330" y1="314" x2="514" y2="640" gradientUnits="userSpaceOnUse">
      <stop stop-color="#E9F7FF"/>
      <stop offset="1" stop-color="#D9EEFF"/>
    </linearGradient>
    <linearGradient id="coin" x1="366" y1="280" x2="686" y2="756" gradientUnits="userSpaceOnUse">
      <stop stop-color="#FFF7D8"/>
      <stop offset="1" stop-color="#FFD58C"/>
    </linearGradient>
    <filter id="shadow" x="109" y="97" width="806" height="810" filterUnits="userSpaceOnUse" color-interpolation-filters="sRGB">
      <feFlood flood-opacity="0" result="BackgroundImageFix"/>
      <feColorMatrix in="SourceAlpha" type="matrix" values="0 0 0 0 0 0 0 0 0 0 0 0 0 0 0 0 0 0 127 0" result="hardAlpha"/>
      <feOffset dy="18"/>
      <feGaussianBlur stdDeviation="24"/>
      <feColorMatrix type="matrix" values="0 0 0 0 0.490196 0 0 0 0 0.678431 0 0 0 0 0.85098 0 0 0 0.18 0"/>
      <feBlend mode="normal" in2="BackgroundImageFix" result="effect1_dropShadow_1_1"/>
      <feBlend mode="normal" in="SourceGraphic" in2="effect1_dropShadow_1_1" result="shape"/>
    </filter>
  </defs>

  <g filter="url(#shadow)">
    <rect x="157" y="127" width="710" height="710" rx="176" fill="url(#bg)"/>
  </g>

  <circle cx="276" cy="280" r="62" fill="#FFFFFF" fill-opacity="0.55"/>
  <circle cx="768" cy="720" r="54" fill="#FFFFFF" fill-opacity="0.42"/>
  <circle cx="714" cy="236" r="34" fill="#FFFFFF" fill-opacity="0.38"/>

  <g transform="rotate(-12 384 474)">
    <rect x="286" y="296" width="220" height="300" rx="58" fill="url(#card)" stroke="#C8E5FB" stroke-width="10"/>
    <rect x="340" y="370" width="116" height="24" rx="12" fill="#B8DFFF"/>
    <rect x="340" y="420" width="96" height="18" rx="9" fill="#C7E7FF"/>
    <rect x="340" y="462" width="82" height="18" rx="9" fill="#C7E7FF"/>
  </g>

  <ellipse cx="536" cy="694" rx="182" ry="52" fill="#A7C8EA" fill-opacity="0.18"/>
  <circle cx="544" cy="516" r="196" fill="url(#coin)" stroke="#FFFFFF" stroke-width="16"/>
  <path d="M430 398C472 362 536 346 600 358" stroke="#FFFFFF" stroke-opacity="0.58" stroke-width="20" stroke-linecap="round"/>

  <text
    x="544"
    y="536"
    text-anchor="middle"
    dominant-baseline="middle"
    font-family="Microsoft YaHei UI, Segoe UI Symbol, sans-serif"
    font-size="260"
    font-weight="700"
    fill="#4D82C2"
  >￥</text>

  <ellipse cx="458" cy="616" rx="24" ry="16" fill="#FFCAD1" fill-opacity="0.78"/>
  <ellipse cx="630" cy="616" rx="24" ry="16" fill="#FFCAD1" fill-opacity="0.78"/>
  <path d="M500 648C520 666 568 666 590 648" stroke="#C48163" stroke-width="12" stroke-linecap="round"/>

  <path d="M718 312L734 346L768 362L734 378L718 412L702 378L668 362L702 346L718 312Z" fill="#FFF2B5"/>
  <path d="M316 654L326 676L348 686L326 696L316 718L306 696L284 686L306 676L316 654Z" fill="#DDEEFF"/>
</svg>
